<svg xmlns="http://www.w3.org/2000/svg" width="260" height="72" viewBox="0 0 260 72" role="img" aria-label="CineFlow">
  <defs>
    <linearGradient id="mark" x1="8" y1="7" x2="61" y2="62" gradientUnits="userSpaceOnUse">
      <stop stop-color="#00A3FF"/>
      <stop offset="0.55" stop-color="#0054A6"/>
      <stop offset="1" stop-color="#FFB703"/>
    </linearGradient>
  </defs>
  <rect x="4" y="6" width="60" height="60" rx="18" fill="url(#mark)"/>
  <path d="M21 25.5C21 20.8 24.8 17 29.5 17H48V27H31C29.3 27 28 28.3 28 30V42C28 43.7 29.3 45 31 45H48V55H29.5C24.8 55 21 51.2 21 46.5V25.5Z" fill="#fff"/>
  <path d="M42 28L55 36L42 44V28Z" fill="#fff"/>
  <circle cx="18" cy="18" r="3.2" fill="#fff" opacity="0.9"/>
  <circle cx="50" cy="54" r="3.2" fill="#fff" opacity="0.9"/>
  <text x="78" y="35" fill="#10324F" font-family="Inter, Segoe UI, Arial, sans-serif" font-size="26" font-weight="900" letter-spacing="0">CineFlow</text>
  <text x="80" y="53" fill="#0054A6" font-family="Inter, Segoe UI, Arial, sans-serif" font-size="11" font-weight="800" letter-spacing="2.8">CINEMA</text>
</svg>
